<?xml version="1.0" standalone="no"?>
<!DOCTYPE svg PUBLIC "-//W3C//DTD SVG 20010904//EN"
 "http://www.w3.org/TR/2001/REC-SVG-20010904/DTD/svg10.dtd">
<svg version="1.0" xmlns="http://www.w3.org/2000/svg"
 width="300.000000pt" height="300.000000pt" viewBox="0 0 300.000000 300.000000"
 preserveAspectRatio="xMidYMid meet">
<metadata>
Created by potrace 1.10, written by Peter Selinger 2001-2011
</metadata>
<g transform="translate(0.000000,300.000000) scale(0.100000,-0.100000)"
fill="#000000" stroke="none">
<path d="M1453 2457 c-4 -7 -20 -18 -35 -24 -23 -11 -29 -10 -37 5 -8 15 -12
14 -32 -12 -16 -21 -28 -27 -46 -23 -23 4 -25 2 -21 -30 4 -29 1 -34 -16 -32
-34 2 -37 0 -26 -20 7 -13 7 -22 0 -26 -7 -4 -6 -14 2 -28 7 -12 11 -25 10
-29 -3 -13 15 -9 27 5 24 29 88 41 164 30 40 -5 79 -7 87 -2 25 13 -37 23
-142 24 -62 0 -98 4 -98 10 0 6 17 27 38 46 38 37 107 59 182 58 19 -1 40 0
45 2 6 1 28 -2 50 -9 22 -6 55 -13 74 -16 19 -3 45 -16 58 -30 13 -14 29 -26
36 -26 13 0 41 -39 34 -47 -3 -2 6 -15 19 -28 13 -13 24 -36 24 -50 0 -15 7
-34 16 -42 9 -10 13 -25 10 -37 -3 -12 -6 -45 -6 -75 l0 -53 -27 8 c-33 9 -73
10 -126 1 -27 -4 -40 -2 -43 8 -3 7 -14 11 -25 8 -26 -7 -20 -38 6 -39 11 0
28 -4 38 -8 11 -5 34 -2 59 8 37 14 44 14 65 1 33 -22 30 -73 -7 -133 -16 -27
-30 -58 -30 -68 0 -11 -8 -35 -18 -54 -29 -55 -36 -119 -15 -142 18 -20 27
-96 13 -113 -4 -5 -11 -25 -15 -44 -4 -19 -20 -54 -35 -78 -26 -40 -29 -43
-39 -25 -7 13 -7 23 2 33 7 7 2 5 -10 -5 -13 -11 -23 -30 -23 -43 0 -13 -7
-37 -15 -53 -16 -30 -28 -41 -20 -17 2 6 0 28 -4 47 l-9 35 -1 -43 c-1 -28
-11 -61 -28 -90 -32 -54 -41 -65 -70 -80 -19 -10 -24 -8 -43 15 -40 51 -37 92
7 96 14 1 19 6 15 20 -3 12 -7 15 -12 7 -12 -19 -57 6 -68 39 -6 17 -18 34
-27 37 -12 5 -15 26 -15 116 l0 110 39 -7 c26 -4 48 -2 66 8 27 13 26 14 -41
20 -38 4 -77 8 -86 10 -24 4 -85 70 -70 75 7 2 12 10 12 17 0 7 6 16 13 18 6
3 -2 6 -18 6 -33 1 -71 41 -39 41 8 0 13 4 9 9 -9 15 12 22 42 14 l28 -7 -30
-8 c-26 -6 -25 -7 8 -3 21 2 50 0 63 -6 22 -8 25 -6 22 8 -3 14 -19 20 -74 26
-65 8 -71 11 -66 29 5 20 22 21 67 2 19 -7 19 -7 3 10 -10 9 -18 21 -18 26 0
5 -10 12 -22 16 -22 8 -22 8 7 15 l30 7 -32 1 c-26 1 -33 -3 -33 -18 0 -11 -4
-22 -9 -26 -14 -8 -5 73 10 91 6 8 7 14 1 14 -5 0 -15 -7 -22 -15 -18 -22 -13
-200 6 -242 9 -17 13 -36 10 -41 -3 -5 -1 -25 5 -45 9 -34 13 -37 47 -38 20
-1 43 -1 50 0 18 3 15 -6 -23 -64 -20 -30 -48 -58 -65 -65 -17 -7 -30 -16 -30
-21 0 -5 -9 -9 -21 -9 -51 0 -203 -61 -251 -101 -56 -48 -64 -61 -84 -136 -8
-31 -21 -70 -28 -87 -19 -44 -15 -126 8 -156 l18 -25 -5 25 c-3 14 -8 36 -12
50 -6 23 -5 24 6 5 34 -56 75 -96 125 -124 53 -30 65 -47 80 -107 l6 -25 -51
21 c-29 11 -57 20 -64 20 -18 -1 55 -39 76 -40 10 0 17 -8 17 -20 0 -15 7 -20
29 -20 22 0 31 -6 36 -22 4 -13 20 -44 36 -69 33 -52 39 -89 8 -47 -11 15 -47
42 -79 59 -32 17 -67 40 -76 50 -16 18 -16 19 9 19 42 0 32 23 -18 44 -25 10
-59 34 -75 54 -16 20 -32 34 -35 31 -7 -8 54 -68 87 -85 27 -14 38 -34 18 -34
-18 0 -11 -26 15 -56 39 -44 31 -84 -20 -108 -22 -10 -43 -23 -47 -30 -11 -16
-10 -86 1 -86 5 0 7 8 4 18 -2 10 3 24 11 31 9 8 16 20 16 27 0 15 94 67 104
57 18 -18 3 24 -16 44 -33 35 -16 37 20 2 17 -17 29 -36 26 -43 -2 -6 -27 -21
-55 -31 -56 -22 -64 -32 -55 -70 5 -20 13 -25 38 -25 l31 0 -21 23 -22 23 21
17 c11 10 32 20 47 23 19 4 28 12 29 26 3 30 13 35 29 13 25 -35 32 -79 20
-129 -12 -47 -12 -47 -31 -26 -18 20 -18 21 4 60 12 22 21 45 19 51 -2 5 -17
-13 -33 -41 -16 -28 -34 -49 -40 -46 -5 2 -10 -7 -10 -20 0 -18 6 -24 22 -24
29 0 54 -10 48 -20 -3 -5 4 -6 14 -3 16 4 19 1 14 -15 -3 -13 -22 -26 -51 -37
-26 -10 -71 -35 -100 -57 -53 -40 -53 -40 -38 -10 15 28 37 52 86 91 21 17 22
20 7 21 -9 0 -38 -19 -63 -42 -34 -31 -48 -39 -53 -29 -6 9 -11 10 -15 2 -4
-6 -2 -11 3 -11 19 0 12 -19 -15 -43 -14 -12 -33 -35 -42 -52 l-16 -30 -8 35
c-4 19 -5 41 -3 48 3 8 0 12 -7 10 -23 -8 -20 -35 9 -97 23 -48 32 -59 50 -58
18 1 21 6 16 25 -4 16 2 31 18 49 42 46 138 111 187 127 46 16 49 15 97 -8 28
-13 77 -29 110 -37 33 -7 52 -14 43 -17 -31 -6 -19 -21 14 -17 17 3 45 -2 62
-10 41 -18 168 -56 173 -51 2 2 -22 14 -54 26 -32 13 -87 38 -123 55 -36 18
-88 35 -116 38 -116 13 -169 69 -157 167 l6 52 36 -7 c20 -4 40 -10 46 -13 5
-3 35 -5 67 -4 62 2 105 -10 124 -36 9 -12 30 -17 81 -19 37 -1 102 -9 143
-18 49 -11 132 -18 242 -19 140 -3 171 -6 195 -21 52 -33 83 -68 89 -104 4
-20 20 -63 36 -96 15 -33 31 -75 34 -93 5 -28 8 -31 22 -20 13 11 14 11 8 0
-12 -20 43 -3 80 25 23 17 34 35 37 61 3 20 9 52 13 70 4 22 1 40 -10 57 -20
30 -20 35 -1 35 8 0 19 9 25 19 8 16 5 26 -16 50 -24 29 -25 33 -10 55 19 30
21 91 7 336 -13 250 -38 409 -69 444 -9 11 -11 16 -5 12 16 -9 1 33 -27 79
-38 62 -149 128 -252 150 -29 7 -31 6 -20 -8 7 -8 9 -18 4 -20 -4 -3 -7 -34
-6 -69 4 -94 5 -97 18 -48 9 36 9 49 -2 67 -18 30 0 38 40 18 l32 -16 -29 31
c-37 38 -28 38 20 0 21 -16 32 -30 25 -30 -9 0 -7 -6 5 -20 10 -11 24 -20 32
-20 22 0 15 29 -14 56 l-28 26 28 -13 c15 -7 27 -16 27 -21 0 -4 10 -9 23 -9
15 -1 17 -3 6 -6 -28 -7 -11 -40 23 -47 l31 -6 -27 -25 c-16 -15 -26 -35 -26
-52 0 -21 -3 -24 -12 -15 -10 10 -9 21 9 52 23 43 22 46 -7 30 -17 -9 -18 -8
-13 7 6 16 5 17 -12 3 -10 -8 -16 -10 -12 -4 4 7 -2 14 -14 17 -12 3 -18 3
-15 0 3 -3 1 -14 -5 -24 -8 -16 -6 -19 13 -16 20 2 24 -3 26 -33 4 -41 18 -61
38 -53 8 3 14 0 14 -6 0 -6 7 -8 15 -5 10 4 15 20 15 49 0 46 15 68 24 37 4
-10 -1 -38 -9 -62 -9 -26 -13 -56 -9 -73 l6 -29 16 23 c11 15 12 24 4 27 -6 2
-8 10 -5 17 4 12 7 12 19 0 13 -13 12 -19 -5 -52 -12 -21 -31 -62 -42 -91 -18
-44 -32 -60 -76 -88 -29 -19 -60 -34 -67 -34 -8 0 -17 -8 -19 -18 -3 -10 -5
-4 -6 13 l-2 30 -14 -25 c-16 -29 -19 -68 -6 -89 8 -12 11 -8 17 15 10 40 34
57 55 38 15 -13 17 -12 23 9 3 15 20 31 41 41 38 18 98 109 90 136 -3 8 8 27
23 41 l27 26 1 -41 c2 -105 7 -152 15 -162 6 -7 5 -22 -1 -40 -23 -61 -65 -86
-159 -99 -53 -7 -54 -7 -49 18 5 26 -17 66 -29 53 -4 -4 -1 -11 6 -16 14 -8 8
-42 -6 -38 -4 1 -18 -3 -30 -10 -15 -8 -23 -9 -23 -2 0 5 -7 10 -15 10 -8 0
-14 3 -14 7 4 24 -3 41 -18 47 -10 3 -33 17 -52 31 -19 14 -35 24 -37 23 -1
-2 2 -21 6 -43 4 -22 8 -32 9 -23 2 38 49 29 72 -14 10 -19 7 -26 -32 -62 -35
-33 -43 -47 -42 -73 1 -19 6 -40 12 -47 18 -21 -12 -80 -51 -99 -18 -9 -34
-14 -36 -13 -1 2 2 15 8 30 9 24 8 27 -7 24 -12 -2 -18 -15 -21 -41 -3 -32 -1
-37 18 -37 11 0 38 11 60 25 22 14 40 20 40 15 0 -6 -13 -19 -30 -28 -16 -9
-30 -20 -30 -24 0 -12 -55 -9 -67 3 -7 7 -9 25 -6 40 6 33 -3 36 -35 13 -25
-17 -29 -34 -9 -34 8 0 22 -9 33 -21 16 -17 16 -22 4 -30 -11 -8 -7 -9 15 -6
17 3 38 9 48 12 27 11 22 -32 -7 -50 -37 -24 -161 -23 -251 3 l-30 8 34 7 c20
4 39 3 45 -3 5 -5 16 -10 24 -10 10 0 9 4 -3 17 -19 18 -104 19 -137 2 -12 -6
-18 -6 -18 1 0 5 5 10 11 10 5 0 7 5 3 12 -5 7 0 9 14 6 23 -6 62 16 62 36 0
8 10 21 23 29 22 16 22 16 -15 16 -29 1 -36 -2 -32 -14 7 -18 -14 -47 -27 -39
-5 3 -5 14 1 25 11 20 8 22 -25 20 -16 -2 -17 0 -5 8 8 5 44 13 80 17 36 4 75
13 87 21 12 8 30 12 40 9 10 -3 41 -2 68 2 l50 8 -74 7 c-57 5 -79 3 -95 -8
-28 -20 -36 -19 -36 6 l0 21 -35 -22 c-40 -25 -67 -20 -83 15 -14 30 -2 33 16
5 16 -26 34 -25 63 1 l24 21 -23 -6 c-13 -2 -30 -2 -38 1 -18 7 -18 63 1 133
18 68 18 68 0 44 -13 -17 -14 -16 -4 13 6 19 15 30 22 26 5 -3 7 -1 3 5 -3 6
-2 13 4 17 5 3 10 19 10 35 0 16 5 32 10 35 6 3 10 2 10 -2 0 -17 64 -13 104
6 23 11 59 36 80 55 38 34 63 39 52 10 -3 -8 -2 -14 3 -14 5 0 12 15 15 33 3
18 17 49 31 67 32 43 31 50 -4 50 -23 0 -30 -5 -36 -27 -3 -14 -27 -50 -51
-79 -73 -85 -169 -119 -209 -74 -10 11 -15 23 -12 27 4 3 7 1 7 -5 0 -7 6 -12
13 -12 15 0 60 136 55 165 -2 13 2 19 11 17 22 -5 111 -66 111 -77 0 -5 -14
-26 -30 -45 -29 -34 -37 -50 -24 -50 10 0 94 95 94 106 0 7 -24 27 -52 45 -29
19 -67 49 -85 68 -26 28 -30 36 -19 45 9 7 11 18 7 30 -6 16 -9 14 -21 -15 -7
-19 -20 -49 -28 -66 -11 -25 -12 -40 -4 -62 8 -22 7 -32 -2 -41 -49 -40 -126
-400 -126 -584 l0 -97 -37 7 c-53 9 -60 17 -67 77 -16 145 -30 198 -56 212
-14 8 -32 12 -41 9 -14 -4 -59 44 -59 64 0 5 9 21 20 35 12 14 27 39 36 54 14
27 15 24 12 -52 l-3 -81 30 -14 30 -15 -3 110 c-4 130 -6 142 -27 125 -12 -10
-15 -9 -15 5 0 29 -24 11 -33 -26 -5 -19 -17 -43 -27 -54 -23 -26 -40 -60 -40
-79 0 -8 17 -33 38 -55 41 -43 59 -87 25 -60 -16 13 -17 13 -4 -3 16 -22 31
-14 31 15 0 17 2 19 9 7 6 -8 7 -18 5 -22 -3 -4 0 -24 5 -45 7 -26 7 -41 0
-50 -8 -9 -7 -14 5 -19 13 -5 14 -9 5 -20 -19 -23 -38 -16 -53 18 -7 18 -28
49 -45 68 -40 43 -39 76 2 73 23 -2 26 1 18 11 -9 11 -21 11 -50 4 l-39 -10
15 -36 c8 -21 28 -51 45 -69 17 -17 33 -46 37 -65 5 -22 13 -34 26 -36 50 -7
65 -13 65 -25 0 -11 -17 -10 -92 0 -50 8 -98 19 -106 25 -15 13 -35 58 -29 64
2 2 27 -7 55 -21 62 -30 62 -30 62 -5 0 11 -15 37 -34 57 -18 21 -46 67 -62
102 -15 35 -30 59 -32 52 -2 -6 -15 -11 -28 -11 -26 0 -64 49 -64 83 0 11 -13
24 -35 33 -19 8 -35 20 -35 28 0 8 -7 17 -16 20 -23 9 -31 7 -14 -4 8 -5 12
-11 9 -14 -9 -9 -97 51 -109 75 -14 25 -1 20 36 -13 37 -33 38 -2 2 42 -31 40
-32 41 -41 18 l-8 -23 -14 25 c-7 14 -11 29 -7 34 3 5 9 1 13 -10 11 -27 10
-7 -1 40 -5 24 -5 46 0 55 7 12 9 8 10 -16 0 -23 5 -33 16 -33 9 0 14 -8 13
-17 -3 -30 1 -43 11 -43 6 0 10 11 10 23 0 15 9 28 23 35 21 11 21 11 -8 9
-24 -2 -31 3 -39 26 -9 23 -7 31 6 41 15 11 15 13 -3 24 -25 16 -24 47 1 83
17 24 26 27 50 22 24 -4 30 -2 30 12 0 10 3 15 7 12 3 -4 15 0 25 10 10 9 18
13 18 9 0 -4 13 2 29 13 40 29 65 28 58 -1 l-6 -23 16 23 c15 21 42 30 44 15
0 -5 2 -16 4 -25 2 -10 -1 -20 -6 -24 -5 -3 -9 -14 -9 -25 0 -10 -4 -19 -9
-19 -5 0 -12 -17 -16 -37 -4 -21 -12 -41 -18 -45 -8 -5 -5 -14 12 -30 19 -19
23 -20 17 -5 -5 17 -3 17 23 -2 25 -18 30 -19 47 -6 28 21 34 18 34 -14 0 -35
-20 -45 -49 -24 -12 8 -24 13 -27 11 -2 -3 12 -13 31 -24 19 -10 35 -25 36
-34 0 -10 2 -11 6 -3 4 10 10 10 26 -2 37 -26 47 -16 16 15 -28 27 -29 33 -23
81 5 34 3 50 -3 46 -20 -12 -35 37 -25 76 8 29 8 37 -3 37 -7 0 -21 3 -30 7
-15 5 -16 3 -4 -18 7 -13 13 -35 14 -49 2 -14 5 -32 9 -40 4 -10 -4 -21 -24
-32 -30 -17 -30 -17 -45 12 -8 15 -11 30 -7 32 4 2 15 28 24 58 l18 56 40 -4
c22 -2 40 0 40 6 0 15 -32 24 -44 12 -14 -14 -26 -13 -26 3 0 7 -17 23 -37 35
-24 14 -31 22 -20 22 10 0 28 -7 42 -16 22 -14 24 -14 34 5 6 11 23 21 38 23
14 2 28 9 31 16 3 11 0 12 -18 2 -12 -6 -24 -9 -27 -6 -3 3 6 11 21 17 15 7
30 24 33 38 l7 26 6 -30 c4 -16 3 -34 -2 -40 -4 -5 -8 -21 -8 -36 0 -14 -5
-40 -11 -58 -6 -18 -9 -35 -5 -38 10 -11 58 16 50 28 -4 7 -2 10 5 8 16 -6 46
-64 61 -119 21 -81 38 -109 67 -116 33 -9 73 12 90 47 7 14 51 70 98 124 95
110 131 175 144 254 8 50 7 53 -19 73 -25 18 -27 22 -18 66 8 47 46 135 78
182 18 26 46 100 42 112 -1 4 7 23 17 41 12 21 16 39 11 47 -5 8 -5 21 -1 29
11 24 7 93 -7 118 -7 12 -11 30 -10 40 3 44 -1 55 -23 48 -19 -6 -21 -4 -17
13 7 24 -17 62 -38 62 -9 0 -14 7 -12 18 2 9 -4 17 -12 18 -18 1 -69 22 -56
23 5 1 1 10 -9 21 -11 13 -22 17 -29 11 -19 -16 -79 -5 -97 18 -17 21 -19 21
-50 6 -26 -14 -33 -15 -40 -3 -7 11 -9 11 -9 0 0 -10 -4 -10 -16 2 -19 19 -21
19 -31 3z m-387 -1689 c6 -18 15 -42 19 -53 7 -20 7 -20 -7 0 -18 25 -39 85
-30 85 4 0 12 -15 18 -32z m1320 -5 c-16 -87 -17 -105 -6 -98 7 5 9 -2 4 -22
-4 -15 -8 -31 -10 -34 -6 -11 -54 3 -54 15 0 6 -10 0 -21 -14 l-20 -25 16 40
c10 26 12 36 4 28 -19 -19 -34 -16 -18 3 8 10 9 18 2 22 -5 4 -15 17 -22 30
-10 19 -9 23 11 31 13 5 43 18 68 30 25 11 46 21 48 21 2 0 1 -12 -2 -27z
m-326 -43 c9 -16 8 -18 -6 -13 -10 4 -24 -4 -40 -22 -26 -30 -30 -40 -14 -30
6 3 10 1 10 -4 0 -6 -9 -11 -20 -11 -28 0 -25 15 13 60 37 45 42 47 57 20z
m84 -6 c0 -16 6 -19 33 -16 20 3 33 10 33 18 0 8 8 14 18 14 14 0 15 -2 2 -10
-13 -8 -13 -10 1 -10 21 0 33 -30 19 -44 -7 -7 -10 -5 -10 7 0 13 -9 17 -45
17 -42 0 -45 -2 -46 -27 -1 -25 -2 -26 -7 -6 -7 21 -9 20 -53 -22 -26 -24 -57
-60 -69 -80 -27 -44 -34 -40 -25 17 6 34 20 55 69 105 62 63 81 72 80 37z
m-960 -38 c11 4 15 2 11 -8 -3 -8 6 -35 20 -62 l25 -48 -36 5 c-36 5 -54 20
-54 45 0 6 -4 12 -8 12 -4 0 -14 17 -21 38 -8 20 -16 44 -19 52 -4 9 9 4 30
-12 22 -17 43 -25 52 -22z m1084 -53 c3 -18 -5 -24 -45 -36 -123 -39 -143 -52
-206 -131 -22 -28 -26 -36 -11 -28 10 5 28 20 38 31 11 12 25 21 33 21 7 0 13
6 13 14 0 13 46 35 140 64 19 7 62 13 95 14 l60 3 -3 -62 c-3 -55 -1 -63 15
-64 16 -1 17 -2 1 -6 -19 -5 -23 -20 -9 -42 11 -17 25 3 15 22 -5 8 -3 8 7 -1
12 -11 10 -17 -14 -38 -27 -23 -27 -25 -11 -49 9 -14 20 -25 25 -25 5 0 9 -4
9 -9 0 -5 -10 -7 -21 -4 -17 5 -29 -2 -50 -28 -15 -19 -31 -30 -36 -25 -4 5
-2 11 5 13 6 3 12 8 12 13 0 13 -41 -1 -47 -16 -14 -38 -90 8 -108 66 -5 16
-10 18 -25 10 -16 -8 -21 -6 -30 12 -10 21 -10 21 3 6 15 -19 39 -6 30 18 -4
10 0 11 21 1 14 -7 21 -13 16 -15 -11 -4 6 -51 27 -74 9 -10 24 -18 34 -18 33
0 32 22 -2 52 l-33 31 22 15 c30 20 28 28 -10 36 l-31 6 24 27 24 26 -50 -28
c-27 -16 -61 -36 -75 -46 -19 -13 -47 -18 -112 -18 l-87 -1 21 47 c23 51 120
182 146 197 36 21 118 45 147 43 22 -1 31 -8 33 -24z m-843 -92 c2 -13 7 -32
11 -44 5 -16 3 -19 -5 -11 -7 6 -14 28 -18 50 -6 40 4 44 12 5z m913 -302 c5
15 29 14 38 -1 4 -6 8 -23 9 -37 2 -14 6 -35 11 -46 7 -18 6 -18 -9 -6 -15 12
-17 10 -17 -19 0 -22 -9 -41 -29 -61 -36 -35 -61 -38 -61 -6 0 12 -12 49 -25
82 -14 33 -25 65 -25 72 0 18 61 32 85 20 13 -7 20 -6 23 2z"/>
<path d="M2313 553 c-7 -2 -13 -11 -13 -18 0 -7 -7 -15 -16 -17 -11 -2 -18
-15 -20 -35 l-4 -33 50 0 c50 0 50 0 50 33 0 17 3 42 6 55 5 18 2 22 -17 21
-13 0 -30 -3 -36 -6z m27 -55 c0 -21 -17 -41 -29 -34 -7 5 -7 13 2 26 13 23
27 26 27 8z"/>
<path d="M2179 485 c-46 -17 -108 -56 -133 -84 -30 -33 -10 -37 21 -3 31 33
158 97 173 87 6 -3 10 -1 10 4 0 14 -26 13 -71 -4z"/>
<path d="M2246 424 c-9 -24 -1 -28 57 -29 46 0 52 2 55 23 3 17 -2 22 -17 22
-12 0 -21 -4 -21 -10 0 -5 -7 -10 -15 -10 -8 0 -15 5 -15 10 0 17 -37 11 -44
-6z"/>
<path d="M1241 2188 c-35 -90 -48 -151 -39 -194 10 -45 28 -60 28 -24 0 11 7
20 15 20 19 0 20 29 2 36 -17 6 -14 50 6 89 20 40 25 87 10 92 -7 3 -17 -6
-22 -19z"/>
<path d="M1563 2168 c-8 -10 -8 -18 2 -31 16 -22 28 -7 17 23 -7 18 -10 19
-19 8z"/>
<path d="M1361 2091 c-14 -4 -26 -12 -28 -18 -5 -14 64 -6 84 9 7 5 17 7 23 3
5 -3 10 -1 10 4 0 12 -51 13 -89 2z"/>
<path d="M1344 1995 l-11 -35 34 0 c19 0 41 7 50 15 14 14 13 15 -11 9 -21 -5
-25 -3 -20 10 7 18 39 22 49 6 3 -5 16 -10 28 -10 43 0 -7 30 -59 36 -49 4
-49 4 -60 -31z"/>
<path d="M1720 1900 c0 -16 -4 -30 -10 -30 -5 0 -10 -5 -10 -11 0 -6 8 -9 17
-7 9 2 15 5 13 8 -7 10 21 50 31 45 5 -4 5 -14 -2 -27 -9 -16 -8 -19 3 -16 33
11 14 68 -23 68 -14 0 -19 -7 -19 -30z"/>
<path d="M6 1695 c5 -168 21 -292 35 -278 5 5 2 35 -6 68 -8 34 -14 117 -14
192 -1 72 -5 142 -11 155 -6 16 -8 -28 -4 -137z"/>
<path d="M1849 1477 c39 -71 27 -97 -51 -111 -29 -5 -42 -14 -54 -37 -8 -17
-13 -33 -10 -37 3 -3 6 0 6 6 0 21 18 13 25 -10 8 -25 54 -78 67 -78 5 0 8 17
6 38 -2 24 -8 36 -16 34 -8 -1 -27 9 -44 23 -17 15 -24 25 -15 25 8 0 20 -6
26 -14 6 -8 23 -16 36 -19 23 -4 25 -1 25 34 0 21 5 41 10 44 6 4 10 -13 10
-44 0 -28 -4 -51 -10 -51 -14 0 -12 -74 2 -88 7 -7 20 -12 30 -12 12 0 18 -8
18 -23 0 -21 3 -23 38 -18 54 9 77 24 65 45 -9 16 -11 16 -22 2 -14 -17 -46
-21 -55 -8 -12 20 -16 158 -5 184 13 32 17 33 47 12 12 -8 22 -10 22 -5 0 6 4
11 9 11 5 0 9 -6 8 -12 -1 -44 4 -78 13 -78 6 0 8 15 4 39 -4 25 -2 41 6 46 8
5 7 12 -6 26 -20 22 -44 24 -64 7 -12 -11 -12 -10 -1 5 11 14 11 17 0 17 -21
0 -103 43 -122 65 -16 17 -16 14 2 -18z m61 -154 c4 -54 4 -106 1 -116 -6 -17
-8 -17 -20 -3 -14 16 -14 29 -7 111 3 28 5 65 5 84 1 66 13 21 21 -76z"/>
<path d="M1447 1464 c-10 -10 17 -32 32 -26 10 4 12 1 6 -8 -6 -9 -4 -11 4 -5
9 5 7 12 -8 26 -22 21 -25 22 -34 13z"/>
<path d="M1991 1320 c0 -19 4 -43 8 -53 6 -17 8 -17 20 -3 9 11 10 16 2 16 -6
0 -11 10 -11 23 0 12 -5 29 -10 37 -7 11 -10 6 -9 -20z"/>
<path d="M1317 1277 c-18 -12 -18 -15 -3 -51 18 -44 21 -70 6 -61 -5 3 -10 16
-10 29 0 12 -11 37 -25 56 -16 22 -25 28 -25 18 0 -9 5 -20 10 -23 10 -6 11
-24 10 -127 0 -43 17 -78 39 -78 13 0 21 71 10 91 -5 11 -6 19 -1 19 26 0 34
-76 11 -106 -5 -5 -6 -20 -3 -31 4 -15 0 -25 -15 -32 -12 -7 -21 -20 -21 -30
0 -28 -42 -64 -99 -84 -34 -12 -56 -27 -65 -45 -11 -19 -15 -22 -16 -10 0 29
-22 67 -35 62 -7 -3 -16 -1 -20 5 -9 15 -48 14 -42 -1 2 -7 15 -13 28 -13 19
0 27 -10 42 -50 21 -57 34 -75 53 -75 10 0 14 13 14 39 0 47 13 59 74 67 25 4
46 12 46 18 0 6 9 19 20 29 11 9 20 29 20 45 0 26 3 29 35 29 19 0 37 2 40 5
9 9 -16 169 -35 221 -10 29 -20 62 -22 75 -3 21 -5 22 -21 9z"/>
<path d="M906 1236 c-22 -35 -20 -51 9 -70 14 -9 25 -12 25 -7 0 5 -4 13 -10
16 -5 3 -10 17 -10 30 0 22 3 24 25 15 14 -5 25 -8 26 -7 7 21 4 37 -6 37 -7
0 -20 2 -28 6 -8 3 -21 -5 -31 -20z"/>
<path d="M1040 1232 c0 -10 6 -26 13 -36 12 -16 13 -14 9 18 -4 37 -22 51 -22
18z"/>
<path d="M2130 1211 c-14 -28 -12 -39 4 -18 16 21 21 16 31 -31 3 -18 15 -37
26 -42 10 -6 19 -8 19 -5 0 2 9 -3 20 -12 28 -24 25 -55 -8 -86 -15 -15 -31
-27 -35 -27 -11 0 2 62 16 79 9 12 9 13 0 7 -18 -10 -59 -83 -77 -135 l-16
-42 38 22 c20 12 58 44 84 71 43 45 46 51 38 80 -11 35 -38 64 -66 70 -13 2
-22 16 -28 46 -9 45 -29 55 -46 23z"/>
<path d="M2033 1199 c-17 -17 -3 -47 25 -54 19 -5 30 -2 39 11 19 26 16 36 -7
24 -24 -13 -44 -4 -36 16 6 17 -6 18 -21 3z"/>
<path d="M39 1190 c-7 -17 6 -188 15 -198 7 -7 6 73 -3 153 -3 33 -9 53 -12
45z"/>
<path d="M2116 1148 c-19 -94 -15 -108 35 -108 13 0 19 7 19 24 0 17 -5 23
-17 22 -15 -1 -17 6 -15 42 4 44 -14 60 -22 20z"/>
<path d="M1096 1126 c4 -16 3 -27 -2 -23 -5 3 -10 -14 -11 -36 -1 -23 -4 -51
-5 -61 -2 -10 3 -21 10 -23 8 -3 12 8 12 37 0 39 1 41 18 29 16 -13 16 -13 0
7 -17 19 -24 44 -13 44 8 0 55 -51 55 -60 0 -6 5 -10 10 -10 6 0 10 5 10 11 0
5 6 7 13 4 6 -3 4 0 -7 7 -29 20 -61 51 -80 78 l-17 25 7 -29z"/>
<path d="M2005 1127 c-24 -65 -32 -107 -20 -107 7 0 36 -16 64 -35 45 -31 51
-33 51 -16 0 11 3 28 6 38 5 15 4 15 -5 3 -15 -21 -24 8 -19 65 3 42 1 46 -22
51 -14 3 -31 7 -38 10 -7 2 -15 -2 -17 -9z"/>
<path d="M1950 1055 c-7 -16 -15 -60 -18 -97 l-4 -66 39 -21 c22 -11 45 -27
52 -35 18 -21 31 -20 31 3 0 10 9 30 20 44 11 14 20 30 20 36 0 6 -9 16 -20
23 -11 7 -20 18 -20 24 0 6 -19 17 -42 24 -56 18 -62 24 -48 49 6 12 9 27 7
34 -3 7 -10 -1 -17 -18z m61 -95 c15 -9 19 -21 19 -68 l0 -57 -20 25 c-11 14
-20 21 -20 16 0 -23 -40 30 -40 54 0 41 20 51 61 30z"/>
<path d="M958 1047 c-16 -13 -28 -30 -28 -39 0 -26 34 -78 50 -78 13 1 13 2
-1 13 -23 18 -41 56 -33 70 4 6 16 22 27 35 26 28 20 28 -15 -1z"/>
<path d="M1715 965 c-23 -11 -25 -14 -10 -14 32 -1 65 11 59 20 -7 11 -12 11
-49 -6z"/>
<path d="M1901 948 c-1 -19 -6 -28 -18 -28 -14 -1 -12 -4 7 -15 14 -7 26 -12
28 -11 1 2 -2 21 -7 42 -7 33 -9 35 -10 12z"/>
<path d="M860 890 c0 -23 7 -33 31 -45 45 -24 47 -11 5 35 l-36 40 0 -30z"/>
<path d="M1886 882 c5 -4 18 -18 27 -32 17 -24 17 -24 17 -3 0 12 -9 27 -19
33 -22 11 -41 13 -25 2z"/>
<path d="M808 850 c-7 -48 9 -372 19 -400 6 -15 7 -50 2 -85 -4 -33 -8 -78 -8
-99 l-1 -39 23 24 c12 13 34 33 50 44 26 19 26 22 16 55 -7 19 -13 41 -15 48
-2 6 -9 12 -15 12 -7 0 -9 -9 -5 -25 5 -18 1 -27 -13 -35 -19 -9 -19 -8 -9 20
5 17 7 37 4 46 -3 8 1 17 9 20 11 4 12 11 5 24 -5 9 -7 35 -4 56 3 31 2 34 -5
18 -11 -24 -31 -41 -31 -25 0 5 6 11 13 14 9 3 8 12 -5 36 -18 32 -7 44 12 14
13 -22 3 97 -12 137 -7 20 -7 23 3 13 19 -19 28 -16 24 7 -2 11 0 18 6 15 5
-4 9 1 9 10 0 8 -7 18 -16 22 -10 4 -14 13 -10 29 8 29 -9 74 -28 74 -8 0 -16
-13 -18 -30z"/>
<path d="M60 832 c0 -10 4 -43 9 -73 5 -30 12 -103 16 -164 6 -122 10 -164 19
-245 3 -30 8 -82 11 -115 10 -107 26 -229 32 -235 9 -9 -19 337 -37 450 -11
67 -30 309 -30 368 0 17 -4 32 -10 32 -5 0 -10 -8 -10 -18z"/>
<path d="M870 832 c0 -16 38 -44 52 -39 8 3 6 6 -5 6 -10 1 -16 5 -12 10 3 6
-4 15 -15 21 -11 6 -20 7 -20 2z"/>
<path d="M2335 831 c-11 -18 -96 -53 -132 -54 -35 -1 -47 -17 -12 -17 61 0
177 55 158 75 -4 3 -10 2 -14 -4z"/>
<path d="M1239 818 c-7 -23 -5 -37 4 -35 13 2 27 17 27 30 0 6 -29 11 -31 5z"/>
<path d="M1190 790 c-11 -7 -11 -15 5 -49 20 -45 21 -46 60 -31 24 9 25 12 12
30 -24 34 -62 59 -77 50z"/>
<path d="M891 704 c-1 -29 4 -44 15 -48 10 -4 13 -2 8 6 -5 7 -11 28 -15 48
l-7 35 -1 -41z"/>
<path d="M1745 540 c-23 -9 -95 -85 -95 -100 0 -13 20 -13 40 0 11 7 11 10 2
10 -7 0 -10 5 -7 11 4 6 9 8 12 6 2 -3 15 6 29 20 13 13 29 21 34 18 5 -3 19
-1 31 5 20 11 20 12 2 25 -21 16 -21 16 -48 5z"/>
<path d="M940 400 c0 -5 -7 -10 -15 -10 -18 0 -19 -8 -2 -43 8 -18 17 -25 27
-21 8 3 27 8 43 11 15 3 27 7 27 9 0 7 -65 63 -72 64 -5 0 -8 -4 -8 -10z"/>
<path d="M930 68 c0 -24 23 -38 65 -38 39 0 85 -9 135 -25 23 -7 24 -6 10 10
-18 22 -51 35 -115 45 -27 5 -60 11 -72 15 -17 5 -23 3 -23 -7z"/>
<path d="M1735 29 c-16 -5 -64 -13 -105 -18 -72 -8 -69 -9 53 -8 127 0 155 6
118 26 -23 13 -26 13 -66 0z"/>
</g>
</svg>
